<?xml version="1.0" encoding="UTF-8" standalone="no"?>
<svg
   xmlns:dc="http://purl.org/dc/elements/1.1/"
   xmlns:cc="http://creativecommons.org/ns#"
   xmlns:rdf="http://www.w3.org/1999/02/22-rdf-syntax-ns#"
   xmlns:svg="http://www.w3.org/2000/svg"
   xmlns="http://www.w3.org/2000/svg"
   xmlns:sodipodi="http://sodipodi.sourceforge.net/DTD/sodipodi-0.dtd"
   xmlns:inkscape="http://www.inkscape.org/namespaces/inkscape"
   viewBox="0 0 200 200"
   version="1.1"
   sodipodi:docname="kde.svg"
   inkscape:version="1.0 (4035a4fb49, 2020-05-01)"
   height="200"
   width="200"
   id="svg4379">
  <metadata
     id="metadata10">
    <rdf:RDF>
      <cc:Work
         rdf:about="">
        <dc:format>image/svg+xml</dc:format>
        <dc:type
           rdf:resource="http://purl.org/dc/dcmitype/StillImage" />
      </cc:Work>
    </rdf:RDF>
  </metadata>
  <defs
     id="defs8" />
  <sodipodi:namedview
     inkscape:document-rotation="0"
     inkscape:snap-bbox-edge-midpoints="true"
     inkscape:bbox-nodes="true"
     inkscape:snap-bbox="true"
     showgrid="true"
     pagecolor="#dfe2e4"
     objecttolerance="10"
     inkscape:zoom="1.4124458"
     inkscape:window-y="32"
     inkscape:window-x="0"
     inkscape:window-width="1920"
     inkscape:window-maximized="1"
     inkscape:window-height="1023"
     inkscape:pageshadow="2"
     inkscape:pageopacity="0"
     inkscape:cy="146.01174"
     inkscape:cx="99.61428"
     inkscape:current-layer="g856"
     guidetolerance="10"
     gridtolerance="10"
     borderopacity="1"
     bordercolor="#666666"
     id="namedview39">
    <inkscape:grid
       type="xygrid"
       id="grid839" />
  </sodipodi:namedview>
  <g
     transform="translate(4.9999998,7.7945092)"
     id="g856">
    <g
       id="g945"
       transform="matrix(5.4545455,0,0,5.4545455,35,17.20549)">
      <circle
         style="opacity:0;fill:#ffffff;fill-opacity:1;stroke:none;stroke-width:1.24874;stroke-linecap:round;stroke-linejoin:round;stroke-miterlimit:4;stroke-dasharray:none;stroke-opacity:1;paint-order:normal"
         id="circle939"
         cx="11"
         cy="11"
         r="11" />
      <g
         id="g943"
         transform="translate(-41,-1)">
        <path
           id="path941"
           transform="matrix(0.84615383,0,0,0.84615383,71.461538,2.6923078)"
           d="m -23,-2 a 13,13 0 0 0 -13,13 13,13 0 0 0 13,13 13,13 0 0 0 9.386719,-4.013672 9.4545456,9.4545456 0 0 1 -6.742188,2.832031 9.4545456,9.4545456 0 0 1 -9.455078,-9.455078 9.4545456,9.4545456 0 0 1 9.455078,-9.4550779 9.4545456,9.4545456 0 0 1 9.455078,9.4550779 9.4545456,9.4545456 0 0 1 -2.013671,5.828125 A 13,13 0 0 0 -10,11 13,13 0 0 0 -23,-2 Z m 2.644531,9.9160156 a 5.4472476,5.4472476 0 0 0 -5.447265,5.4472654 5.4472476,5.4472476 0 0 0 5.447265,5.447266 5.4472476,5.4472476 0 0 0 5.447266,-5.447266 5.4472476,5.4472476 0 0 0 -5.447266,-5.4472654 z"
           style="opacity:1;fill:#fafafa;fill-opacity:1;stroke:none;stroke-width:1.47578;stroke-linecap:round;stroke-linejoin:round;stroke-miterlimit:4;stroke-dasharray:none;stroke-opacity:1;paint-order:normal" />
      </g>
    </g>
  </g>
</svg>
